<?xml version="1.0" standalone="no"?>
<!DOCTYPE svg PUBLIC "-//W3C//DTD SVG 20010904//EN"
 "http://www.w3.org/TR/2001/REC-SVG-20010904/DTD/svg10.dtd">
<svg version="1.0" xmlns="http://www.w3.org/2000/svg"
 width="539.000000pt" height="448.000000pt" viewBox="0 0 539.000000 448.000000"
 preserveAspectRatio="xMidYMid meet">

<g transform="translate(0.000000,448.000000) scale(0.100000,-0.100000)"
fill="#000000" stroke="none">
<path d="M100 2245 l0 -2235 2235 0 2235 0 0 1026 0 1026 -179 -173 -180 -174
0 -677 -1 -678 -1880 0 -1880 0 0 1880 0 1880 1531 0 1531 0 201 167 c111 91
209 172 217 180 12 11 -296 13 -1908 13 l-1922 0 0 -2235z"/>
<path d="M3580 3405 c-591 -491 -1078 -894 -1082 -894 -3 -1 -185 193 -403
429 -219 237 -400 430 -404 430 -3 0 -204 -198 -446 -440 l-440 -440 838 -838
837 -837 1410 1410 c775 775 1410 1413 1410 1417 0 4 -145 153 -322 332 l-323
326 -1075 -895z"/>
</g>
</svg>
