<?xml version="1.0" standalone="no"?>
<!DOCTYPE svg PUBLIC "-//W3C//DTD SVG 20010904//EN"
 "http://www.w3.org/TR/2001/REC-SVG-20010904/DTD/svg10.dtd">
<svg version="1.0" xmlns="http://www.w3.org/2000/svg"
 width="405.000000pt" height="405.000000pt" viewBox="0 0 405.000000 405.000000"
 preserveAspectRatio="xMidYMid meet">

<g transform="translate(0.000000,405.000000) scale(0.100000,-0.100000)"
fill="#000000" stroke="none">
<path d="M1763 3870 c-458 -69 -865 -293 -1163 -640 -404 -468 -549 -1093
-395 -1701 131 -521 507 -974 1010 -1220 215 -104 290 -118 335 -62 19 25 20
37 18 212 l-3 186 -60 -5 c-33 -3 -105 -4 -160 -4 -208 3 -349 90 -425 264
-49 112 -103 177 -229 278 -65 52 -49 92 38 92 105 0 220 -80 312 -217 103
-152 243 -209 421 -169 41 9 83 22 92 29 10 7 28 46 42 86 14 40 39 93 55 118
17 24 29 46 26 49 -2 2 -42 11 -88 19 -494 87 -728 346 -755 834 -12 223 32
384 147 536 l41 54 -16 70 c-22 98 -20 220 5 322 12 46 26 90 31 97 6 7 34 12
68 12 92 0 247 -59 388 -147 70 -43 75 -45 115 -35 263 66 594 69 844 6 l64
-16 82 49 c157 94 289 143 383 143 65 0 73 -10 99 -119 22 -90 22 -244 1 -321
l-15 -55 30 -40 c49 -67 100 -162 127 -238 23 -66 25 -86 26 -247 1 -228 -21
-335 -102 -500 -28 -56 -58 -96 -122 -160 -137 -137 -268 -195 -562 -251 -32
-6 -58 -12 -58 -15 0 -2 13 -23 30 -45 16 -23 39 -67 52 -98 21 -53 22 -74 28
-408 5 -339 6 -353 26 -373 38 -38 80 -36 199 11 649 253 1105 837 1190 1522
88 714 -230 1401 -835 1802 -244 161 -511 261 -806 300 -156 20 -377 18 -531
-5z"/>
<path d="M820 1196 c0 -10 9 -16 21 -16 24 0 21 23 -4 28 -10 2 -17 -3 -17
-12z"/>
<path d="M902 1138 c-8 -8 -9 -15 -1 -25 15 -17 39 -17 39 1 0 22 -24 38 -38
24z"/>
<path d="M970 1032 c0 -21 18 -42 37 -42 16 0 17 32 1 48 -18 18 -38 15 -38
-6z"/>
<path d="M1057 926 c-3 -8 3 -22 13 -31 21 -19 50 -14 50 8 0 32 -52 51 -63
23z"/>
<path d="M1187 846 c-7 -18 12 -36 39 -36 25 0 38 22 21 39 -15 15 -54 14 -60
-3z"/>
<path d="M1496 845 c-16 -12 -17 -17 -6 -30 16 -19 44 -19 60 0 10 12 10 18 0
30 -15 19 -29 19 -54 0z"/>
<path d="M1350 825 c-10 -12 -10 -18 0 -30 7 -8 18 -15 25 -15 7 0 18 7 25 15
10 12 10 18 0 30 -7 8 -18 15 -25 15 -7 0 -18 -7 -25 -15z"/>
</g>
</svg>
