<svg version="1.2" xmlns="http://www.w3.org/2000/svg" viewBox="0 0 392 381" width="392" height="381">
	<title>github__1-svg</title>
	<style>
		.s0 { fill: #000000 } 
	</style>
	<g id="Layer">
		<path id="Layer" class="s0" d="m222.4 8.5c29.5 3.9 56.2 13.9 80.6 30c60.5 40.1 92.3 108.8 83.5 180.2c-8.5 68.5-54.1 126.9-119 152.2c-11.9 4.7-16.1 4.9-19.9 1.1c-2-2-2.1-3.4-2.6-37.3c-0.6-33.4-0.7-35.5-2.8-40.8c-1.3-3.1-3.6-7.5-5.2-9.8c-1.7-2.2-3-4.3-3-4.5c0-0.3 2.6-0.9 5.8-1.5c29.4-5.6 42.5-11.4 56.2-25.1c6.4-6.4 9.4-10.4 12.2-16c8.1-16.5 10.3-27.2 10.2-50c-0.1-16.1-0.3-18.1-2.6-24.7c-2.7-7.6-7.8-17.1-12.7-23.8l-3-4l1.5-5.5c2.1-7.7 2.1-23.1-0.1-32.1c-2.6-10.9-3.4-11.9-9.9-11.9c-9.4 0-22.6 4.9-38.3 14.3l-8.2 4.9l-6.4-1.6c-25-6.3-58.1-6-84.4 0.6c-4 1-4.5 0.8-11.5-3.5c-14.1-8.8-29.6-14.7-38.8-14.7c-3.4 0-6.2 0.5-6.8 1.2c-0.5 0.7-1.9 5.1-3.1 9.7c-2.5 10.2-2.7 22.4-0.5 32.2l1.6 7l-4.1 5.4c-11.5 15.2-15.9 31.3-14.7 53.6c2.7 48.8 26.1 74.7 75.5 83.4c4.6 0.8 8.6 1.7 8.8 1.9c0.3 0.3-0.9 2.5-2.6 4.9c-1.6 2.5-4.1 7.8-5.5 11.8c-1.4 4-3.2 7.9-4.2 8.6c-0.9 0.7-5.1 2-9.2 2.9c-17.8 4-31.8-1.7-42.1-16.9c-9.2-13.7-20.7-21.7-31.2-21.7c-8.7 0-10.3 4-3.8 9.2c12.6 10.1 18 16.6 22.9 27.8c7.6 17.4 21.7 26.1 42.5 26.4c5.5 0 12.7-0.1 16-0.4l6-0.5l0.3 18.6c0.2 17.5 0.1 18.7-1.8 21.2c-4.5 5.6-12 4.2-33.5-6.2c-50.3-24.6-87.9-69.9-101-122c-15.4-60.8-0.9-123.3 39.5-170.1c29.8-34.7 70.5-57.1 116.3-64c15.4-2.3 37.5-2.5 53.1-0.5z" />
		<path id="Layer" class="s0" d="m76.7 275.2c2.5 0.5 2.8 2.8 0.4 2.8c-1.2 0-2.1-0.6-2.1-1.6c0-0.9 0.7-1.4 1.7-1.2z" />
		<path id="Layer" class="s0" d="m87 284.6c0 1.8-2.4 1.8-3.9 0.1c-0.8-1-0.7-1.7 0.1-2.5c1.4-1.4 3.8 0.2 3.8 2.4z" />
		<path id="Layer" class="s0" d="m93.8 292.2c1.6 1.6 1.5 4.8-0.1 4.8c-1.9 0-3.7-2.1-3.7-4.2c0-2.1 2-2.4 3.8-0.6z" />
		<path id="Layer" class="s0" d="m105 305.7c0 2.2-2.9 2.7-5 0.8c-1-0.9-1.6-2.3-1.3-3.1c1.1-2.8 6.3-0.9 6.3 2.3z" />
		<path id="Layer" class="s0" d="m117.7 311.1c1.7 1.7 0.4 3.9-2.1 3.9c-2.7 0-4.6-1.8-3.9-3.6c0.6-1.7 4.5-1.8 6-0.3z" />
		<path id="Layer" class="s0" d="m148 311.5c1 1.2 1 1.8 0 3c-1.6 1.9-4.4 1.9-6 0c-1.1-1.3-1-1.8 0.6-3c2.5-1.9 3.9-1.9 5.4 0z" />
		<path id="Layer" class="s0" d="m130.5 312c0.7 0 1.8 0.7 2.5 1.5c1 1.2 1 1.8 0 3c-0.7 0.8-1.8 1.5-2.5 1.5c-0.7 0-1.8-0.7-2.5-1.5c-1-1.2-1-1.8 0-3c0.7-0.8 1.8-1.5 2.5-1.5z" />
	</g>
</svg>