<?xml version="1.0" standalone="no"?>
<!DOCTYPE svg PUBLIC "-//W3C//DTD SVG 20010904//EN"
 "http://www.w3.org/TR/2001/REC-SVG-20010904/DTD/svg10.dtd">
<svg version="1.0" xmlns="http://www.w3.org/2000/svg"
 width="405.000000pt" height="405.000000pt" viewBox="0 0 405.000000 405.000000"
 preserveAspectRatio="xMidYMid meet">

<g transform="translate(0.000000,405.000000) scale(0.100000,-0.100000)"
fill="#000000" stroke="none">
<path d="M1775 3865 c-146 -20 -350 -75 -455 -122 -428 -191 -751 -496 -953
-899 -82 -165 -127 -302 -164 -504 -22 -120 -25 -479 -5 -585 28 -151 58 -269
82 -330 4 -11 14 -36 20 -55 50 -139 226 -428 329 -540 28 -30 51 -58 51 -62
0 -3 48 -49 107 -100 192 -168 406 -297 623 -376 325 -118 751 -134 1093 -42
20 5 52 14 70 19 119 32 302 120 452 218 221 144 380 298 525 512 66 96 179
299 192 346 4 11 15 45 26 75 28 76 58 193 79 308 22 120 25 478 5 587 -46
249 -78 347 -172 535 -117 233 -273 433 -460 590 -36 30 -67 57 -70 60 -3 3
-51 35 -107 72 -115 76 -239 141 -375 196 -44 18 -228 69 -293 81 -182 34
-427 40 -600 16z m437 -296 c606 -93 1064 -462 1268 -1019 65 -178 84 -303 84
-530 -1 -153 -5 -203 -23 -290 -54 -248 -159 -470 -314 -665 -73 -91 -231
-239 -326 -304 -132 -90 -388 -207 -409 -187 -4 4 -9 150 -12 324 l-5 317 -28
57 c-16 32 -47 76 -69 98 -49 48 -46 70 9 70 37 0 129 17 222 40 61 15 177 67
231 103 165 110 241 266 256 522 12 194 -28 342 -129 487 l-40 57 16 76 c19
83 22 176 8 221 -5 16 -15 49 -22 74 -24 83 -29 86 -106 79 -37 -4 -85 -11
-105 -17 -46 -12 -158 -69 -241 -123 -49 -32 -68 -39 -92 -35 -76 14 -286 36
-345 36 -55 0 -232 -18 -372 -37 -31 -4 -46 2 -110 44 -133 89 -211 120 -332
132 l-69 6 -20 -44 c-25 -58 -46 -145 -47 -195 0 -22 7 -81 16 -131 l16 -91
-44 -64 c-96 -141 -123 -235 -123 -430 1 -319 107 -505 351 -616 94 -42 227
-77 347 -90 32 -4 60 -11 63 -15 2 -5 -14 -28 -37 -51 -23 -24 -54 -71 -70
-104 -15 -34 -36 -65 -46 -69 -47 -18 -176 -32 -221 -23 -100 20 -151 59 -261
203 -53 69 -115 110 -187 125 -52 11 -94 3 -94 -19 0 -12 29 -42 84 -86 53
-43 102 -112 156 -220 32 -63 128 -175 151 -175 5 0 30 -10 55 -22 40 -19 65
-22 183 -22 l136 -1 2 -185 c2 -102 -1 -191 -6 -199 -13 -20 -61 -4 -216 69
-181 86 -325 195 -467 355 -199 223 -317 461 -374 754 -21 109 -24 413 -5 516
70 372 242 685 501 912 228 201 506 329 830 381 80 14 298 14 382 1z"/>
</g>
</svg>
