<?xml version="1.0" standalone="no"?>
<!DOCTYPE svg PUBLIC "-//W3C//DTD SVG 20010904//EN"
 "http://www.w3.org/TR/2001/REC-SVG-20010904/DTD/svg10.dtd">
<svg version="1.0" xmlns="http://www.w3.org/2000/svg"
 width="405.000000pt" height="405.000000pt" viewBox="0 0 405.000000 405.000000"
 preserveAspectRatio="xMidYMid meet">

<g transform="translate(0.000000,405.000000) scale(0.100000,-0.100000)"
fill="#000000" stroke="none">
<path d="M1860 3745 c-695 -86 -1262 -577 -1449 -1255 -44 -157 -55 -247 -55
-450 0 -203 11 -293 55 -450 89 -325 274 -623 516 -834 529 -461 1257 -563
1883 -265 177 85 318 185 465 333 154 155 241 274 329 451 174 350 224 731
146 1114 -67 330 -221 613 -469 862 -153 153 -291 252 -471 338 -291 139 -634
195 -950 156z m505 -255 c200 -45 364 -114 514 -215 340 -228 553 -544 643
-952 31 -141 31 -425 0 -566 -45 -203 -119 -382 -223 -536 -226 -336 -562
-557 -964 -637 -123 -25 -403 -25 -533 -1 -701 132 -1212 745 -1212 1457 0
731 532 1349 1260 1464 132 21 392 14 515 -14z"/>
<path d="M1450 2949 c-140 -42 -190 -216 -94 -327 137 -160 390 -30 350 181
-7 38 -65 111 -105 131 -37 20 -110 27 -151 15z"/>
<path d="M2460 2415 c-73 -21 -127 -54 -178 -109 -23 -25 -43 -46 -45 -46 -1
0 -1 31 0 70 l2 70 -170 0 -169 0 0 -560 0 -560 175 0 175 0 0 309 c0 169 5
332 10 362 20 107 90 168 193 169 102 0 158 -53 176 -170 6 -36 11 -201 11
-367 l0 -303 175 0 175 0 0 333 c0 349 -8 466 -35 560 -32 112 -116 201 -218
233 -76 23 -210 27 -277 9z"/>
<path d="M1330 1840 l0 -560 178 2 177 3 3 535 c1 294 0 545 -3 558 -5 22 -7
22 -180 22 l-175 0 0 -560z"/>
</g>
</svg>
