<svg version="1.2" xmlns="http://www.w3.org/2000/svg" viewBox="0 0 352 352" width="352" height="352">
	<title>linkedin-svg</title>
	<style>
		.s0 { fill: #000000 } 
	</style>
	<g id="Layer">
		<path id="Layer" fill-rule="evenodd" class="s0" d="m250 24.1c18 8.6 31.8 18.5 47.1 33.8c24.8 24.9 40.2 53.2 46.9 86.2c7.8 38.3 2.8 76.4-14.6 111.4c-8.8 17.7-17.5 29.6-32.9 45.1c-14.7 14.8-28.8 24.8-46.5 33.3c-62.6 29.8-135.4 19.6-188.3-26.5c-24.2-21.1-42.7-50.9-51.6-83.4c-4.4-15.7-5.5-24.7-5.5-45c0-20.3 1.1-29.3 5.5-45c18.7-67.8 75.4-116.9 144.9-125.5c31.6-3.9 65.9 1.7 95 15.6zm-96 8.5c-72.8 11.5-126 73.3-126 146.4c0 71.2 51.1 132.5 121.2 145.7c13 2.4 41 2.4 53.3-0.1c40.2-8 73.8-30.1 96.4-63.7c10.4-15.4 17.8-33.3 22.3-53.6c3.1-14.1 3.1-42.5 0-56.6c-9-40.8-30.3-72.4-64.3-95.2c-15-10.1-31.4-17-51.4-21.5c-12.3-2.8-38.3-3.5-51.5-1.4z" />
		<path id="Layer" class="s0" d="m129.1 89.6c4 2 9.8 9.3 10.5 13.1c4 21.1-21.3 34.1-35 18.1c-9.6-11.1-4.6-28.5 9.4-32.7c4.1-1.2 11.4-0.5 15.1 1.5z" />
		<path id="Layer" class="s0" d="m242.7 142.4c10.2 3.2 18.6 12.1 21.8 23.3c2.7 9.4 3.5 21.1 3.5 56v33.3h-17.5h-17.5v-30.3c0-16.6-0.5-33.1-1.1-36.7c-1.8-11.7-7.4-17-17.6-17c-10.3 0.1-17.3 6.2-19.3 16.9c-0.5 3-1 19.3-1 36.2v30.9h-17.5h-17.5v-56v-56h16.9h17l-0.2 7c-0.1 3.9-0.1 7 0 7c0.2 0 2.2-2.1 4.5-4.6c5.1-5.5 10.5-8.8 17.8-10.9c6.7-1.8 20.1-1.4 27.7 0.9z" />
		<path id="Layer" class="s0" d="m102 143h17.5c17.3 0 17.5 0 18 2.2c0.3 1.3 0.4 26.4 0.3 55.8l-0.3 53.5l-17.7 0.3l-17.8 0.2v-56z" />
	</g>
</svg>