<?xml version="1.0" standalone="no"?>
<!DOCTYPE svg PUBLIC "-//W3C//DTD SVG 20010904//EN"
 "http://www.w3.org/TR/2001/REC-SVG-20010904/DTD/svg10.dtd">
<svg version="1.0" xmlns="http://www.w3.org/2000/svg"
 width="876.000000pt" height="867.000000pt" viewBox="0 0 876.000000 867.000000"
 preserveAspectRatio="xMidYMid meet">

<g transform="translate(0.000000,867.000000) scale(0.100000,-0.100000)"
fill="#000000" stroke="none">
<path d="M4100 8640 c-861 -55 -1688 -362 -2371 -881 -325 -248 -631 -556
-874 -884 -691 -929 -975 -2119 -779 -3265 70 -407 193 -791 372 -1156 104
-211 153 -295 288 -499 626 -945 1602 -1608 2724 -1849 312 -67 551 -91 920
-91 308 0 425 8 670 45 1222 187 2306 878 2985 1905 617 932 843 2047 639
3155 -194 1052 -794 2010 -1669 2660 -626 467 -1343 749 -2130 840 -194 23
-582 33 -775 20z m709 -195 c1138 -115 2152 -671 2877 -1576 84 -105 277 -391
346 -514 285 -503 463 -1072 519 -1660 16 -164 16 -573 0 -730 -54 -538 -180
-984 -407 -1445 -217 -443 -473 -792 -837 -1146 -323 -315 -688 -570 -1091
-765 -968 -466 -2082 -546 -3106 -223 -1448 457 -2538 1663 -2834 3134 -50
249 -68 426 -73 735 -5 298 5 476 43 713 210 1323 1052 2461 2264 3061 524
259 1042 394 1665 435 115 7 481 -4 634 -19z"/>
<path d="M4135 8149 c-604 -37 -1193 -213 -1715 -512 -459 -263 -897 -656
-1212 -1088 -352 -483 -587 -1049 -683 -1644 -69 -430 -60 -917 26 -1350 311
-1569 1596 -2799 3190 -3054 244 -39 340 -46 634 -46 291 0 387 7 625 45 1541
246 2798 1397 3160 2895 82 339 105 538 105 915 -1 393 -31 636 -126 988 -379
1413 -1561 2506 -3014 2786 -333 64 -656 86 -990 65z m551 -59 c1547 -123
2872 -1162 3348 -2625 125 -385 178 -732 178 -1160 0 -354 -28 -592 -107 -913
-237 -964 -863 -1808 -1731 -2335 -477 -289 -1007 -466 -1594 -533 -197 -22
-623 -22 -815 0 -783 92 -1432 362 -2040 850 -128 103 -438 412 -542 541 -431
537 -705 1148 -807 1805 -71 450 -56 943 40 1380 330 1498 1512 2643 3029
2934 130 25 342 53 445 59 137 8 479 6 596 -3z"/>
<path d="M3047 7653 c-3 -5 -90 -226 -195 -493 -105 -267 -220 -559 -255 -650
-61 -155 -463 -1178 -584 -1485 -30 -77 -75 -192 -100 -255 -257 -659 -343
-863 -465 -1108 -78 -157 -139 -268 -152 -276 -11 -8 -86 -26 -166 -41 -205
-38 -342 -65 -362 -71 -69 -20 52 -24 812 -24 755 0 885 4 813 23 -20 6 -74
13 -438 62 -359 48 -325 40 -319 78 36 197 180 624 371 1102 l48 120 937 3
c888 2 938 1 947 -16 10 -19 10 -21 -239 -652 -34 -85 -83 -211 -110 -280
-198 -507 -399 -1012 -441 -1109 -47 -108 -207 -433 -260 -527 l-23 -42 -191
-37 c-104 -20 -227 -43 -272 -52 -55 -11 -83 -21 -83 -30 0 -11 142 -13 830
-13 700 0 830 2 830 14 0 9 -18 16 -57 20 -32 4 -103 13 -158 21 -55 8 -138
19 -185 25 -47 6 -130 17 -185 25 -55 8 -121 17 -147 20 -42 5 -48 9 -48 30 0
86 140 521 308 955 l98 255 951 3 951 2 50 -97 c142 -277 290 -706 345 -998
30 -160 34 -142 -26 -150 -29 -3 -101 -13 -162 -21 -60 -8 -144 -19 -185 -24
-41 -5 -124 -16 -185 -25 -60 -8 -136 -17 -167 -21 -40 -4 -58 -11 -58 -20 0
-12 162 -14 1050 -14 649 0 1050 4 1050 9 0 16 -9 18 -161 51 -79 17 -173 37
-209 45 -36 8 -79 17 -96 20 -26 5 -38 20 -93 118 -82 148 -310 605 -390 782
-34 77 -114 262 -176 410 -62 149 -172 412 -245 585 -73 173 -237 565 -365
870 -366 873 -561 1338 -603 1435 l-38 90 -115 3 -114 2 -54 -137 c-29 -76
-96 -246 -148 -378 -52 -132 -108 -276 -125 -320 -17 -44 -34 -84 -38 -88 -4
-4 -103 221 -220 500 -117 279 -319 762 -450 1073 -130 311 -250 598 -266 637
l-29 73 -117 0 c-64 0 -119 -3 -121 -7z m559 -1504 c266 -639 484 -1167 484
-1173 0 -22 -85 -223 -95 -226 -5 -1 -107 231 -226 516 -119 286 -336 806
-483 1157 -146 351 -266 646 -266 655 0 15 73 213 87 235 3 4 7 6 10 3 3 -3
223 -528 489 -1167z m-492 391 c242 -486 563 -1222 699 -1607 l36 -102 -27 -5
c-116 -23 -342 -31 -832 -31 -515 0 -803 12 -841 36 -10 6 8 61 80 246 317
807 510 1272 684 1636 46 99 52 107 65 90 7 -10 68 -128 136 -263z m2381
-2535 c445 -1067 814 -1955 822 -1973 l13 -32 -103 0 -102 0 -258 618 c-141
339 -257 621 -257 625 0 4 12 7 26 7 36 0 25 23 -15 31 -17 4 -33 8 -35 10 -1
2 -159 380 -351 839 -191 459 -417 1003 -503 1208 l-155 372 48 126 c26 69 51
121 55 117 4 -4 371 -881 815 -1948z m-807 1148 c159 -319 253 -525 419 -913
150 -350 312 -765 301 -775 -18 -18 -549 -45 -894 -45 -319 0 -794 26 -812 45
-4 4 156 418 323 835 196 486 488 1150 506 1150 5 0 76 -134 157 -297z"/>
</g>
</svg>
