<?xml version="1.0" standalone="no"?>
<!DOCTYPE svg PUBLIC "-//W3C//DTD SVG 20010904//EN"
 "http://www.w3.org/TR/2001/REC-SVG-20010904/DTD/svg10.dtd">
<svg version="1.0" xmlns="http://www.w3.org/2000/svg"
 width="980.000000pt" height="980.000000pt" viewBox="0 0 980.000000 980.000000"
 preserveAspectRatio="xMidYMid meet">

<g transform="translate(0.000000,980.000000) scale(0.100000,-0.100000)"
fill="#000000" stroke="none">
<path d="M4640 9793 c-381 -26 -614 -62 -940 -143 -590 -147 -1173 -420 -1675
-785 -407 -296 -814 -705 -1103 -1108 -728 -1016 -1039 -2244 -881 -3482 118
-922 488 -1771 1094 -2507 141 -171 462 -492 633 -633 1076 -885 2424 -1273
3787 -1090 924 125 1765 497 2495 1106 156 129 464 437 591 589 190 227 375
491 509 725 84 146 246 480 305 630 617 1558 394 3327 -590 4680 -284 390
-665 775 -1050 1060 -857 636 -1885 972 -2940 963 -104 -1 -210 -3 -235 -5z
m605 -693 c788 -67 1539 -351 2168 -821 858 -642 1440 -1576 1631 -2619 53
-288 61 -391 61 -760 0 -369 -8 -472 -61 -760 -149 -815 -538 -1569 -1119
-2169 -588 -608 -1354 -1030 -2169 -1196 -332 -68 -459 -79 -851 -80 -375 0
-474 8 -765 61 -1609 295 -2917 1515 -3320 3097 -98 385 -125 609 -125 1047 0
360 10 484 61 760 317 1718 1669 3070 3384 3384 123 22 339 51 450 59 108 8
545 6 655 -3z"/>
<path d="M3365 7800 c-171 -55 -368 -231 -534 -475 -128 -188 -230 -501 -273
-835 -17 -139 -14 -469 6 -619 89 -649 375 -1296 858 -1939 382 -508 637 -806
890 -1040 496 -458 1077 -777 1609 -884 95 -19 147 -22 309 -23 211 0 276 8
422 56 223 72 422 215 534 384 82 122 89 201 34 349 -76 201 -418 565 -765
812 -182 129 -263 163 -391 164 -105 0 -168 -20 -259 -81 -134 -91 -301 -148
-460 -156 -84 -5 -114 -2 -180 16 -95 26 -244 102 -340 174 -97 71 -306 281
-404 406 -239 303 -476 731 -576 1041 -36 113 -46 293 -20 389 23 88 65 171
135 266 32 44 94 132 136 195 43 63 123 176 178 250 l101 135 -1 105 c-2 123
-26 217 -104 399 -134 311 -384 689 -539 817 -127 105 -243 135 -366 94z"/>
</g>
</svg>
