<svg version="1.2" xmlns="http://www.w3.org/2000/svg" viewBox="0 0 319 319" width="319" height="319">
	<title>telegram-svg</title>
	<style>
		.s0 { fill: #000000 } 
	</style>
	<g id="Layer">
		<path id="Layer" fill-rule="evenodd" class="s0" d="m184 8.1c16.9 3.2 34.6 9.1 46 15.2c41.6 22.6 69.3 59.5 79 105.2c3.1 14.6 3.8 37.7 1.5 52c-5.5 35.5-19.7 63.3-44.9 88c-23.3 22.9-53.1 37.3-87 42c-13.8 1.9-24.4 1.9-37.8 0c-20.3-2.8-28.8-5.3-46.3-13.5c-46.7-21.7-77.6-63.4-86.4-116.1c-1.6-9.3-1.3-35.8 0.4-45.9c4.4-26.6 15.3-51.1 31.5-71.2c26.7-33.2 67.3-54.7 108-57.2c8.5-0.5 29.9 0.4 36 1.5zm-43.5 9.6c-1.1 0.2-5.6 1.1-9.9 1.9c-16.8 3.2-34.9 10.9-50.7 21.4c-11.4 7.6-30.4 26.3-37.6 37c-4.4 6.5-13 22.6-15.4 28.5c-3.8 9.7-6.1 18.6-8.9 33.9c-0.5 3.3-1 11.5-1 18.4c0 29 8.5 56.2 25.3 81.2c4.4 6.5 23.4 26.8 29.2 31c21.7 16.1 40.6 24.3 65.5 28.5c22.1 3.8 52.9 0.6 72.9-7.4c24.3-9.8 43.3-23.5 59.1-42.6c16.2-19.8 25.4-39.7 31-68c1.6-7.8 1.6-37.3 0.1-45c-4.9-23.9-12.7-42.9-24.6-60c-7.6-10.8-25.4-28.1-37-35.7c-9.6-6.4-26-14.8-28.8-14.8c-0.7 0-1.7-0.4-2.3-0.8c-1.4-1.3-15-5-24.4-6.7c-7.9-1.4-37.3-2-42.5-0.8z" />
		<path id="Layer" fill-rule="evenodd" class="s0" d="m225.2 92.1c1.9-0.1 4.8 2.4 4.8 4.2c0 1.9-30.1 121.9-31.2 124.3c-1.4 3-7.1 5.7-10.6 4.9c-2.2-0.4-11.5-6.8-20.2-13.8c-0.9-0.6-5-3.8-9.3-7.1c-6.8-5.1-7.9-5.7-9.5-4.5c-1.9 1.5-13.7 11.5-16.7 14.2c-1.1 1-2.6 1.6-3.5 1.5c-0.8-0.2-6.2-9.7-12.5-22.1l-11.1-21.9l-17.9-6c-9.9-3.4-18.6-6.5-19.2-7.1c-2.7-2.1-0.2-8.7 3.4-8.7c0.7 0 2.1-0.4 3.1-0.9c0.9-0.6 7.3-3.1 14.2-5.6c6.9-2.6 13.4-5 14.5-5.5c1.9-0.8 10.8-4.2 46.5-17.7c8-3 15.4-5.8 16.5-6.3c1.1-0.5 7.6-2.9 14.5-5.5c6.9-2.6 13.4-5 14.5-5.5c1.1-0.4 4.7-1.8 8-3c3.3-1.2 6.9-2.6 8-3.1c1.1-0.5 4.3-1.7 7-2.8c2.8-1 5.8-1.9 6.7-2zm-41.2 36.1c-3.6 2.3-8.1 5-10.1 6.2c-21.4 12.4-58.9 35.4-59.3 36.4c-0.6 1.4 13.1 30.2 14.5 30.2c1.1 0 1.1-4.5-0.1-12c-0.7-4.5-0.5-5.9 0.8-7.7c1-1.2 9.8-9.3 19.7-17.9c9.9-8.6 20.9-18.3 24.5-21.4c3.6-3.1 8.8-7.7 11.6-10.1c2.8-2.4 5.6-5.2 6.3-6.2c1.8-2.8-0.6-2-7.9 2.5z" />
	</g>
</svg>