<?xml version="1.0" standalone="no"?>
<!DOCTYPE svg PUBLIC "-//W3C//DTD SVG 20010904//EN"
 "http://www.w3.org/TR/2001/REC-SVG-20010904/DTD/svg10.dtd">
<svg version="1.0" xmlns="http://www.w3.org/2000/svg"
 width="30px" height="30px" viewBox="0 0 405.000000 405.000000"
 preserveAspectRatio="xMidYMid meet">

<g transform="translate(0.000000,405.000000) scale(0.100000,-0.100000)"
fill="#000000" stroke="none">
<path d="M1870 3574 c-407 -25 -813 -240 -1080 -572 -162 -201 -271 -446 -315
-712 -17 -101 -20 -366 -4 -459 88 -527 397 -944 864 -1161 175 -82 260 -107
463 -135 134 -19 240 -19 378 0 339 47 637 191 870 420 252 247 394 525 449
880 23 143 16 374 -15 520 -97 457 -374 826 -790 1052 -114 61 -291 120 -460
152 -61 11 -275 20 -360 15z m350 -119 c94 -17 230 -54 244 -67 6 -4 16 -8 23
-8 28 0 192 -84 288 -148 116 -76 294 -249 370 -357 119 -171 197 -361 246
-600 15 -77 15 -372 -1 -450 -56 -283 -148 -482 -310 -680 -158 -191 -348
-328 -591 -426 -200 -80 -508 -112 -729 -74 -249 42 -438 124 -655 285 -58 42
-248 245 -292 310 -168 250 -253 522 -253 812 0 69 5 151 10 184 28 153 51
242 89 339 24 59 110 220 154 285 72 107 262 294 376 370 158 105 339 182 507
214 43 8 88 17 99 19 52 12 346 6 425 -8z"/>
<path d="M2575 2699 c-27 -11 -59 -23 -70 -28 -11 -5 -47 -19 -80 -31 -33 -12
-69 -26 -80 -30 -11 -5 -76 -29 -145 -55 -69 -26 -134 -50 -145 -55 -11 -5
-85 -33 -165 -63 -357 -135 -446 -169 -465 -177 -11 -5 -76 -29 -145 -55 -69
-25 -133 -50 -142 -56 -10 -5 -24 -9 -31 -9 -36 0 -61 -66 -34 -87 6 -6 93
-37 192 -71 l179 -60 111 -219 c63 -124 117 -219 125 -221 9 -1 24 5 35 15 30
27 148 127 167 142 16 12 27 6 95 -45 43 -33 84 -65 93 -71 87 -70 180 -134
202 -138 35 -8 92 19 106 49 11 24 312 1224 312 1243 0 18 -29 43 -48 42 -9
-1 -39 -10 -67 -20z m-266 -316 c-7 -10 -35 -38 -63 -62 -28 -24 -80 -70 -116
-101 -36 -31 -146 -128 -245 -214 -99 -86 -187 -167 -197 -179 -13 -18 -15
-32 -8 -77 12 -75 12 -120 1 -120 -14 0 -151 288 -145 302 4 10 379 240 593
364 20 12 65 39 101 62 73 45 97 53 79 25z"/>
</g>
</svg>
