<svg xmlns="http://www.w3.org/2000/svg" xmlns:xlink="http://www.w3.org/1999/xlink"><defs><symbol viewBox="0 0 306 306" id="arrow-down"><path d="M94.35 0l-35.7 35.7L175.95 153 58.65 270.3l35.7 35.7 153-153z" /></symbol><symbol viewBox="0 0 539 448" id="checkbox_checked"><path d="M10 223.5V447h447V241.8l-17.9 17.3-18 17.4v67.7L421 412H45V36h306.2l20.1-16.7c11.1-9.1 20.9-17.2 21.7-18C394.2.2 363.4 0 202.2 0H10v223.5z" /><path d="M358 107.5c-59.1 49.1-107.8 89.4-108.2 89.4-.3.1-18.5-19.3-40.3-42.9-21.9-23.7-40-43-40.4-43-.3 0-20.4 19.8-44.6 44l-44 44 83.8 83.8 83.7 83.7 141-141C466.5 148 530 84.2 530 83.8c0-.4-14.5-15.3-32.2-33.2L465.5 18 358 107.5z" /></symbol><symbol viewBox="0 0 539 455" id="checkbox_unchecked"><path d="M10 231.5V455h447V8H10v223.5zm411-.5v188H45V43h376v188z" /></symbol><symbol viewBox="0 0 174.239 174.239" id="cross"><path d="M146.537 1.047a3.6 3.6 0 00-5.077 0L89.658 52.849a3.6 3.6 0 01-5.077 0L32.78 1.047a3.6 3.6 0 00-5.077 0L1.047 27.702a3.6 3.6 0 000 5.077l51.802 51.802a3.6 3.6 0 010 5.077L1.047 141.46a3.6 3.6 0 000 5.077l26.655 26.655a3.6 3.6 0 005.077 0l51.802-51.802a3.6 3.6 0 015.077 0l51.801 51.801a3.6 3.6 0 005.077 0l26.655-26.655a3.6 3.6 0 000-5.077L121.39 89.658a3.6 3.6 0 010-5.077l51.801-51.801a3.6 3.6 0 000-5.077L146.537 1.047z" /></symbol><symbol viewBox="0 0 475.084 475.084" id="github"><path d="M436.244 146.752c5.14-15.422 7.713-31.409 7.713-47.967 0-22.08-4.859-42.828-14.564-62.242-20.362 0-38.349 3.715-53.961 11.136-15.604 7.423-33.4 18.938-53.379 34.545-25.122-6.09-51.777-9.135-79.941-9.135-30.837 0-60.245 3.333-88.223 9.994-20.364-15.99-38.351-27.74-53.959-35.26-15.608-7.52-33.689-11.279-54.247-11.279-9.707 19.414-14.56 40.163-14.56 62.242 0 16.751 2.568 32.93 7.708 48.535C12.942 177.587 0 215.272 0 260.383c0 39.595 5.898 71.092 17.701 94.507 6.283 12.367 14.465 23.312 24.554 32.832 10.085 9.514 21.601 17.228 34.545 23.13 12.946 5.896 25.981 10.801 39.116 14.699 13.134 3.9 27.646 6.758 43.54 8.559 15.893 1.816 29.93 3.004 42.111 3.579 12.181.564 25.693.853 40.544.853 17.508 0 33.396-.432 47.678-1.283 14.277-.855 30.594-2.953 48.964-6.276 18.367-3.333 34.547-7.857 48.54-13.565 13.99-5.708 27.412-13.895 40.259-24.551 12.847-10.663 22.884-23.318 30.121-37.976 11.604-23.603 17.412-55.107 17.412-94.507-.007-45.302-12.95-83.178-38.841-113.632zm-34.249 207.703c-6.092 12.471-13.802 22.265-23.127 29.41-9.329 7.139-20.938 12.847-34.831 17.135-13.9 4.281-27.217 7.087-39.971 8.415-12.758 1.334-26.933 1.998-42.545 1.998h-47.966c-15.607 0-29.79-.664-42.541-1.998-12.752-1.328-26.075-4.134-39.971-8.415-13.891-4.288-25.5-9.996-34.829-17.135-9.329-7.146-17.037-16.939-23.128-29.41-6.09-12.471-9.136-27.076-9.136-43.824 0-22.847 6.567-42.264 19.702-58.245 13.134-15.99 30.929-23.982 53.387-23.982 8.188 0 26.746 1.997 55.677 5.995 13.513 2.093 28.456 3.14 44.823 3.14 16.372 0 31.313-1.044 44.824-3.14 29.317-3.999 47.869-5.995 55.678-5.995 22.457 0 40.252 7.996 53.386 23.982 13.135 15.988 19.698 35.398 19.698 58.245 0 16.751-3.046 31.364-9.13 43.824z" /><path d="M166.875 265.52c-5.806-6.475-12.703-9.712-20.699-9.712-7.998 0-14.896 3.241-20.701 9.712-5.802 6.468-9.897 13.703-12.275 21.689-2.383 8.002-3.571 15.804-3.571 23.422 0 7.61 1.191 15.413 3.571 23.414 2.375 7.991 6.468 15.222 12.275 21.689 5.808 6.475 12.703 9.713 20.701 9.713 7.996 0 14.896-3.244 20.699-9.713 5.804-6.468 9.897-13.698 12.275-21.689 2.38-8.001 3.571-15.804 3.571-23.414 0-7.611-1.188-15.42-3.571-23.422-2.379-7.983-6.468-15.215-12.275-21.689zM349.601 265.52c-5.804-6.475-12.703-9.712-20.697-9.712-7.991 0-14.894 3.241-20.701 9.712-5.804 6.468-9.896 13.703-12.271 21.689-2.385 8.002-3.576 15.804-3.576 23.422 0 7.61 1.191 15.413 3.576 23.414 2.375 7.991 6.468 15.222 12.271 21.689 5.808 6.475 12.71 9.713 20.701 9.713 7.994 0 14.894-3.244 20.697-9.713 5.801-6.468 9.896-13.698 12.278-21.689 2.379-8.001 3.569-15.804 3.569-23.414 0-7.611-1.19-15.42-3.569-23.422-2.381-7.983-6.477-15.215-12.278-21.689z" /></symbol><symbol viewBox="0 0 392 381" id="github__1"><style>#github__1 .s0{fill:#000}</style><g id="github__1_Layer"><path id="github__1_Layer" class="s0" d="M222.4 8.5c29.5 3.9 56.2 13.9 80.6 30 60.5 40.1 92.3 108.8 83.5 180.2-8.5 68.5-54.1 126.9-119 152.2-11.9 4.7-16.1 4.9-19.9 1.1-2-2-2.1-3.4-2.6-37.3-.6-33.4-.7-35.5-2.8-40.8-1.3-3.1-3.6-7.5-5.2-9.8-1.7-2.2-3-4.3-3-4.5 0-.3 2.6-.9 5.8-1.5 29.4-5.6 42.5-11.4 56.2-25.1 6.4-6.4 9.4-10.4 12.2-16 8.1-16.5 10.3-27.2 10.2-50-.1-16.1-.3-18.1-2.6-24.7-2.7-7.6-7.8-17.1-12.7-23.8l-3-4 1.5-5.5c2.1-7.7 2.1-23.1-.1-32.1-2.6-10.9-3.4-11.9-9.9-11.9-9.4 0-22.6 4.9-38.3 14.3l-8.2 4.9-6.4-1.6c-25-6.3-58.1-6-84.4.6-4 1-4.5.8-11.5-3.5C128.7 90.9 113.2 85 104 85c-3.4 0-6.2.5-6.8 1.2-.5.7-1.9 5.1-3.1 9.7-2.5 10.2-2.7 22.4-.5 32.2l1.6 7-4.1 5.4c-11.5 15.2-15.9 31.3-14.7 53.6 2.7 48.8 26.1 74.7 75.5 83.4 4.6.8 8.6 1.7 8.8 1.9.3.3-.9 2.5-2.6 4.9-1.6 2.5-4.1 7.8-5.5 11.8-1.4 4-3.2 7.9-4.2 8.6-.9.7-5.1 2-9.2 2.9-17.8 4-31.8-1.7-42.1-16.9C87.9 277 76.4 269 65.9 269c-8.7 0-10.3 4-3.8 9.2 12.6 10.1 18 16.6 22.9 27.8 7.6 17.4 21.7 26.1 42.5 26.4 5.5 0 12.7-.1 16-.4l6-.5.3 18.6c.2 17.5.1 18.7-1.8 21.2-4.5 5.6-12 4.2-33.5-6.2-50.3-24.6-87.9-69.9-101-122C-1.9 182.3 12.6 119.8 53 73c29.8-34.7 70.5-57.1 116.3-64 15.4-2.3 37.5-2.5 53.1-.5z" /><path id="github__1_Layer" class="s0" d="M76.7 275.2c2.5.5 2.8 2.8.4 2.8-1.2 0-2.1-.6-2.1-1.6 0-.9.7-1.4 1.7-1.2zM87 284.6c0 1.8-2.4 1.8-3.9.1-.8-1-.7-1.7.1-2.5 1.4-1.4 3.8.2 3.8 2.4zM93.8 292.2c1.6 1.6 1.5 4.8-.1 4.8-1.9 0-3.7-2.1-3.7-4.2s2-2.4 3.8-.6zM105 305.7c0 2.2-2.9 2.7-5 .8-1-.9-1.6-2.3-1.3-3.1 1.1-2.8 6.3-.9 6.3 2.3zM117.7 311.1c1.7 1.7.4 3.9-2.1 3.9-2.7 0-4.6-1.8-3.9-3.6.6-1.7 4.5-1.8 6-.3zM148 311.5c1 1.2 1 1.8 0 3-1.6 1.9-4.4 1.9-6 0-1.1-1.3-1-1.8.6-3 2.5-1.9 3.9-1.9 5.4 0zM130.5 312c.7 0 1.8.7 2.5 1.5 1 1.2 1 1.8 0 3-.7.8-1.8 1.5-2.5 1.5s-1.8-.7-2.5-1.5c-1-1.2-1-1.8 0-3 .7-.8 1.8-1.5 2.5-1.5z" /></g></symbol><symbol viewBox="0 0 405 405" id="github__2"><path d="M177.5 18.5c-14.6 2-35 7.5-45.5 12.2-42.8 19.1-75.1 49.6-95.3 89.9-8.2 16.5-12.7 30.2-16.4 50.4-2.2 12-2.5 47.9-.5 58.5 2.8 15.1 5.8 26.9 8.2 33 .4 1.1 1.4 3.6 2 5.5 5 13.9 22.6 42.8 32.9 54 2.8 3 5.1 5.8 5.1 6.2 0 .3 4.8 4.9 10.7 10 19.2 16.8 40.6 29.7 62.3 37.6 32.5 11.8 75.1 13.4 109.3 4.2 2-.5 5.2-1.4 7-1.9 11.9-3.2 30.2-12 45.2-21.8 22.1-14.4 38-29.8 52.5-51.2 6.6-9.6 17.9-29.9 19.2-34.6.4-1.1 1.5-4.5 2.6-7.5 2.8-7.6 5.8-19.3 7.9-30.8 2.2-12 2.5-47.8.5-58.7-4.6-24.9-7.8-34.7-17.2-53.5-11.7-23.3-27.3-43.3-46-59-3.6-3-6.7-5.7-7-6-.3-.3-5.1-3.5-10.7-7.2-11.5-7.6-23.9-14.1-37.5-19.6-4.4-1.8-22.8-6.9-29.3-8.1-18.2-3.4-42.7-4-60-1.6zm43.7 29.6C281.8 57.4 327.6 94.3 348 150c6.5 17.8 8.4 30.3 8.4 53-.1 15.3-.5 20.3-2.3 29-5.4 24.8-15.9 47-31.4 66.5-7.3 9.1-23.1 23.9-32.6 30.4-13.2 9-38.8 20.7-40.9 18.7-.4-.4-.9-15-1.2-32.4l-.5-31.7-2.8-5.7c-1.6-3.2-4.7-7.6-6.9-9.8-4.9-4.8-4.6-7 .9-7 3.7 0 12.9-1.7 22.2-4 6.1-1.5 17.7-6.7 23.1-10.3 16.5-11 24.1-26.6 25.6-52.2 1.2-19.4-2.8-34.2-12.9-48.7l-4-5.7 1.6-7.6c1.9-8.3 2.2-17.6.8-22.1-.5-1.6-1.5-4.9-2.2-7.4-2.4-8.3-2.9-8.6-10.6-7.9-3.7.4-8.5 1.1-10.5 1.7-4.6 1.2-15.8 6.9-24.1 12.3-4.9 3.2-6.8 3.9-9.2 3.5-7.6-1.4-28.6-3.6-34.5-3.6-5.5 0-23.2 1.8-37.2 3.7-3.1.4-4.6-.2-11-4.4-13.3-8.9-21.1-12-33.2-13.2l-6.9-.6-2 4.4c-2.5 5.8-4.6 14.5-4.7 19.5 0 2.2.7 8.1 1.6 13.1l1.6 9.1-4.4 6.4c-9.6 14.1-12.3 23.5-12.3 43 .1 31.9 10.7 50.5 35.1 61.6 9.4 4.2 22.7 7.7 34.7 9 3.2.4 6 1.1 6.3 1.5.2.5-1.4 2.8-3.7 5.1-2.3 2.4-5.4 7.1-7 10.4-1.5 3.4-3.6 6.5-4.6 6.9-4.7 1.8-17.6 3.2-22.1 2.3-10-2-15.1-5.9-26.1-20.3-5.3-6.9-11.5-11-18.7-12.5-5.2-1.1-9.4-.3-9.4 1.9 0 1.2 2.9 4.2 8.4 8.6 5.3 4.3 10.2 11.2 15.6 22 3.2 6.3 12.8 17.5 15.1 17.5.5 0 3 1 5.5 2.2 4 1.9 6.5 2.2 18.3 2.2l13.6.1.2 18.5c.2 10.2-.1 19.1-.6 19.9-1.3 2-6.1.4-21.6-6.9-18.1-8.6-32.5-19.5-46.7-35.5-19.9-22.3-31.7-46.1-37.4-75.4-2.1-10.9-2.4-41.3-.5-51.6 7-37.2 24.2-68.5 50.1-91.2 22.8-20.1 50.6-32.9 83-38.1 8-1.4 29.8-1.4 38.2-.1z" /></symbol><symbol viewBox="0 0 97.395 97.395" id="insta"><path d="M12.501 0h72.393c6.875 0 12.5 5.09 12.5 12.5v72.395c0 7.41-5.625 12.5-12.5 12.5H12.501C5.624 97.395 0 92.305 0 84.895V12.5C0 5.09 5.624 0 12.501 0zm58.447 10.821a4.395 4.395 0 00-4.383 4.385v10.495a4.396 4.396 0 004.383 4.385h11.008a4.398 4.398 0 004.385-4.385V15.206a4.397 4.397 0 00-4.385-4.385H70.948zm15.439 30.367h-8.572a28.486 28.486 0 011.25 8.355c0 16.2-13.556 29.332-30.275 29.332-16.718 0-30.272-13.132-30.272-29.332 0-2.904.438-5.708 1.25-8.355h-8.945v41.141a3.884 3.884 0 003.872 3.872h67.822a3.883 3.883 0 003.872-3.872V41.188h-.002zM48.789 29.533c-10.802 0-19.56 8.485-19.56 18.953s8.758 18.953 19.56 18.953c10.803 0 19.562-8.485 19.562-18.953s-8.758-18.953-19.562-18.953z" /></symbol><symbol viewBox="0 0 512 512" id="key"><path d="M334.974 0c-95.419 0-173.049 77.63-173.049 173.049 0 21.213 3.769 41.827 11.211 61.403L7.672 399.928a12.613 12.613 0 00-3.694 8.917v90.544c0 6.965 5.646 12.611 12.611 12.611h74.616a12.61 12.61 0 008.91-3.686l25.145-25.107a12.61 12.61 0 003.701-8.925v-30.876h30.837c6.965 0 12.611-5.646 12.611-12.611v-12.36h12.361c6.964 0 12.611-5.646 12.611-12.611v-27.136h27.136c3.344 0 6.551-1.329 8.917-3.694l40.121-40.121c19.579 7.449 40.196 11.223 61.417 11.223 95.419 0 173.049-77.63 173.049-173.049C508.022 77.63 430.393 0 334.974 0zm0 320.874c-20.642 0-40.606-4.169-59.339-12.393-4.844-2.126-10.299-.956-13.871 2.525-.039.037-.077.067-.115.106l-42.354 42.354h-34.523c-6.965 0-12.611 5.646-12.611 12.611v27.136H159.8c-6.964 0-12.611 5.646-12.611 12.611v12.36h-30.838c-6.964 0-12.611 5.646-12.611 12.611v38.257l-17.753 17.725H29.202v-17.821l154.141-154.14c4.433-4.433 4.433-11.619 0-16.051s-11.617-4.434-16.053 0L29.202 436.854V414.07l167.696-167.708c.038-.038.067-.073.102-.11 3.482-3.569 4.656-9.024 2.53-13.872-8.216-18.732-12.38-38.695-12.38-59.33 0-81.512 66.315-147.827 147.827-147.827S482.802 91.537 482.802 173.05c-.002 81.51-66.318 147.824-147.828 147.824z" /><path d="M387.638 73.144c-26.047 0-47.237 21.19-47.237 47.237s21.19 47.237 47.237 47.237 47.237-21.19 47.237-47.237-21.189-47.237-47.237-47.237zm0 69.252c-12.139 0-22.015-9.876-22.015-22.015s9.876-22.015 22.015-22.015 22.015 9.876 22.015 22.015-9.876 22.015-22.015 22.015z" /></symbol><symbol viewBox="0 0 512.092 512.092" id="link"><path d="M312.453 199.601a116.167 116.167 0 00-20.053-16.128 119.472 119.472 0 00-64.427-18.859 118.952 118.952 0 00-84.48 34.987L34.949 308.23a119.466 119.466 0 00-34.91 84.318c-.042 65.98 53.41 119.501 119.39 119.543a118.7 118.7 0 0084.395-34.816l89.6-89.6a8.534 8.534 0 00-6.059-14.592h-3.413a143.626 143.626 0 01-54.613-10.581 8.533 8.533 0 00-9.301 1.877l-64.427 64.512c-20.006 20.006-52.442 20.006-72.448 0-20.006-20.006-20.006-52.442 0-72.448l108.971-108.885c19.99-19.965 52.373-19.965 72.363 0 13.472 12.679 34.486 12.679 47.957 0a34.134 34.134 0 009.899-21.675 34.137 34.137 0 00-9.9-26.282z" /><path d="M477.061 34.993c-46.657-46.657-122.303-46.657-168.96 0l-89.515 89.429a8.533 8.533 0 00-1.792 9.387 8.532 8.532 0 008.021 5.205h3.157a143.357 143.357 0 0154.528 10.667 8.533 8.533 0 009.301-1.877l64.256-64.171c20.006-20.006 52.442-20.006 72.448 0 20.006 20.006 20.006 52.442 0 72.448l-80.043 79.957-.683.768-27.989 27.819c-19.99 19.965-52.373 19.965-72.363 0-13.472-12.679-34.486-12.679-47.957 0a34.139 34.139 0 00-9.899 21.845 34.137 34.137 0 009.899 26.283 118.447 118.447 0 0034.133 23.893c1.792.853 3.584 1.536 5.376 2.304 1.792.768 3.669 1.365 5.461 2.048a67.799 67.799 0 005.461 1.792l5.035 1.365c3.413.853 6.827 1.536 10.325 2.133 4.214.626 8.458 1.025 12.715 1.195H284.461l5.12-.597c1.877-.085 3.84-.512 6.059-.512h2.901l5.888-.853 2.731-.512 4.949-1.024h.939a119.456 119.456 0 0055.381-31.403l108.629-108.629c46.66-46.657 46.66-122.303.003-168.96z" /></symbol><symbol viewBox="0 0 352 352" id="linkedin"><style>#linkedin .s0{fill:#000}</style><g id="linkedin_Layer"><path id="linkedin_Layer" fill-rule="evenodd" class="s0" d="M250 24.1c18 8.6 31.8 18.5 47.1 33.8 24.8 24.9 40.2 53.2 46.9 86.2 7.8 38.3 2.8 76.4-14.6 111.4-8.8 17.7-17.5 29.6-32.9 45.1-14.7 14.8-28.8 24.8-46.5 33.3-62.6 29.8-135.4 19.6-188.3-26.5C37.5 286.3 19 256.5 10.1 224c-4.4-15.7-5.5-24.7-5.5-45s1.1-29.3 5.5-45C28.8 66.2 85.5 17.1 155 8.5c31.6-3.9 65.9 1.7 95 15.6zm-96 8.5C81.2 44.1 28 105.9 28 179c0 71.2 51.1 132.5 121.2 145.7 13 2.4 41 2.4 53.3-.1 40.2-8 73.8-30.1 96.4-63.7 10.4-15.4 17.8-33.3 22.3-53.6 3.1-14.1 3.1-42.5 0-56.6-9-40.8-30.3-72.4-64.3-95.2-15-10.1-31.4-17-51.4-21.5-12.3-2.8-38.3-3.5-51.5-1.4z" /><path id="linkedin_Layer" class="s0" d="M129.1 89.6c4 2 9.8 9.3 10.5 13.1 4 21.1-21.3 34.1-35 18.1-9.6-11.1-4.6-28.5 9.4-32.7 4.1-1.2 11.4-.5 15.1 1.5zM242.7 142.4c10.2 3.2 18.6 12.1 21.8 23.3 2.7 9.4 3.5 21.1 3.5 56V255h-35v-30.3c0-16.6-.5-33.1-1.1-36.7-1.8-11.7-7.4-17-17.6-17-10.3.1-17.3 6.2-19.3 16.9-.5 3-1 19.3-1 36.2V255h-35V143h33.9l-.2 7c-.1 3.9-.1 7 0 7 .2 0 2.2-2.1 4.5-4.6 5.1-5.5 10.5-8.8 17.8-10.9 6.7-1.8 20.1-1.4 27.7.9zM102 143h17.5c17.3 0 17.5 0 18 2.2.3 1.3.4 26.4.3 55.8l-.3 53.5-17.7.3-17.8.2v-56z" /></g></symbol><symbol viewBox="0 0 483.3 483.3" id="mail"><path d="M424.3 57.75H59.1c-32.6 0-59.1 26.5-59.1 59.1v249.6c0 32.6 26.5 59.1 59.1 59.1h365.1c32.6 0 59.1-26.5 59.1-59.1v-249.5c.1-32.6-26.4-59.2-59-59.2zm32.1 308.7c0 17.7-14.4 32.1-32.1 32.1H59.1c-17.7 0-32.1-14.4-32.1-32.1v-249.5c0-17.7 14.4-32.1 32.1-32.1h365.1c17.7 0 32.1 14.4 32.1 32.1v249.5h.1z" /><path d="M304.8 238.55l118.2-106c5.5-5 6-13.5 1-19.1-5-5.5-13.5-6-19.1-1l-163 146.3-31.8-28.4c-.1-.1-.2-.2-.2-.3-.7-.7-1.4-1.3-2.2-1.9L78.3 112.35c-5.6-5-14.1-4.5-19.1 1.1-5 5.6-4.5 14.1 1.1 19.1l119.6 106.9-119.1 111.5c-5.4 5.1-5.7 13.6-.6 19.1 2.7 2.8 6.3 4.3 9.9 4.3 3.3 0 6.6-1.2 9.2-3.6l120.9-113.1 32.8 29.3c2.6 2.3 5.8 3.4 9 3.4s6.5-1.2 9-3.5l33.7-30.2 120.2 114.2c2.6 2.5 6 3.7 9.3 3.7 3.6 0 7.1-1.4 9.8-4.2 5.1-5.4 4.9-14-.5-19.1l-118.7-112.7z" /></symbol><symbol viewBox="0 0 612 612" id="message"><path d="M401.625 325.125h-191.25c-10.557 0-19.125 8.568-19.125 19.125s8.568 19.125 19.125 19.125h191.25c10.557 0 19.125-8.568 19.125-19.125s-8.568-19.125-19.125-19.125zm38.25-114.75h-267.75c-10.557 0-19.125 8.568-19.125 19.125s8.568 19.125 19.125 19.125h267.75c10.557 0 19.125-8.568 19.125-19.125s-8.568-19.125-19.125-19.125zM306 0C137.012 0 0 119.875 0 267.75c0 84.514 44.848 159.751 114.75 208.826V612l134.047-81.339c18.552 3.061 37.638 4.839 57.203 4.839 169.008 0 306-119.875 306-267.75S475.008 0 306 0zm0 497.25c-22.338 0-43.911-2.601-64.643-7.019l-90.041 54.123 1.205-88.701C83.5 414.133 38.25 345.513 38.25 267.75c0-126.741 119.875-229.5 267.75-229.5s267.75 102.759 267.75 229.5S453.875 497.25 306 497.25z" /></symbol><symbol viewBox="0 0 876 867" id="myLogo"><path d="M410 3c-86.1 5.5-168.8 36.2-237.1 88.1-32.5 24.8-63.1 55.6-87.4 88.4C16.4 272.4-12 391.4 7.6 506c7 40.7 19.3 79.1 37.2 115.6 10.4 21.1 15.3 29.5 28.8 49.9C136.2 766 233.8 832.3 346 856.4c31.2 6.7 55.1 9.1 92 9.1 30.8 0 42.5-.8 67-4.5 122.2-18.7 230.6-87.8 298.5-190.5 61.7-93.2 84.3-204.7 63.9-315.5C848 249.8 788 154 700.5 89c-62.6-46.7-134.3-74.9-213-84-19.4-2.3-58.2-3.3-77.5-2zm70.9 19.5C594.7 34 696.1 89.6 768.6 180.1c8.4 10.5 27.7 39.1 34.6 51.4 28.5 50.3 46.3 107.2 51.9 166 1.6 16.4 1.6 57.3 0 73-5.4 53.8-18 98.4-40.7 144.5-21.7 44.3-47.3 79.2-83.7 114.6-32.3 31.5-68.8 57-109.1 76.5-96.8 46.6-208.2 54.6-310.6 22.3C166.2 782.7 57.2 662.1 27.6 515c-5-24.9-6.8-42.6-7.3-73.5-.5-29.8.5-47.6 4.3-71.3C45.6 237.9 129.8 124.1 251 64.1c52.4-25.9 104.2-39.4 166.5-43.5 11.5-.7 48.1.4 63.4 1.9z" /><path d="M413.5 52.1c-60.4 3.7-119.3 21.3-171.5 51.2-45.9 26.3-89.7 65.6-121.2 108.8C85.6 260.4 62.1 317 52.5 376.5c-6.9 43-6 91.7 2.6 135 31.1 156.9 159.6 279.9 319 305.4 24.4 3.9 34 4.6 63.4 4.6 29.1 0 38.7-.7 62.5-4.5 154.1-24.6 279.8-139.7 316-289.5 8.2-33.9 10.5-53.8 10.5-91.5-.1-39.3-3.1-63.6-12.6-98.8C776 195.9 657.8 86.6 512.5 58.6c-33.3-6.4-65.6-8.6-99-6.5zm55.1 5.9c154.7 12.3 287.2 116.2 334.8 262.5 12.5 38.5 17.8 73.2 17.8 116 0 35.4-2.8 59.2-10.7 91.3-23.7 96.4-86.3 180.8-173.1 233.5-47.7 28.9-100.7 46.6-159.4 53.3-19.7 2.2-62.3 2.2-81.5 0-78.3-9.2-143.2-36.2-204-85-12.8-10.3-43.8-41.2-54.2-54.1C95.2 621.8 67.8 560.7 57.6 495c-7.1-45-5.6-94.3 4-138 33-149.8 151.2-264.3 302.9-293.4 13-2.5 34.2-5.3 44.5-5.9 13.7-.8 47.9-.6 59.6.3z" /><path d="M304.7 101.7c-.3.5-9 22.6-19.5 49.3-10.5 26.7-22 55.9-25.5 65-6.1 15.5-46.3 117.8-58.4 148.5-3 7.7-7.5 19.2-10 25.5-25.7 65.9-34.3 86.3-46.5 110.8-7.8 15.7-13.9 26.8-15.2 27.6-1.1.8-8.6 2.6-16.6 4.1-20.5 3.8-34.2 6.5-36.2 7.1-6.9 2 5.2 2.4 81.2 2.4 75.5 0 88.5-.4 81.3-2.3-2-.6-7.4-1.3-43.8-6.2-35.9-4.8-32.5-4-31.9-7.8 3.6-19.7 18-62.4 37.1-110.2l4.8-12 93.7-.3c88.8-.2 93.8-.1 94.7 1.6 1 1.9 1 2.1-23.9 65.2-3.4 8.5-8.3 21.1-11 28-19.8 50.7-39.9 101.2-44.1 110.9-4.7 10.8-20.7 43.3-26 52.7l-2.3 4.2-19.1 3.7c-10.4 2-22.7 4.3-27.2 5.2-5.5 1.1-8.3 2.1-8.3 3 0 1.1 14.2 1.3 83 1.3 70 0 83-.2 83-1.4 0-.9-1.8-1.6-5.7-2-3.2-.4-10.3-1.3-15.8-2.1s-13.8-1.9-18.5-2.5c-4.7-.6-13-1.7-18.5-2.5s-12.1-1.7-14.7-2c-4.2-.5-4.8-.9-4.8-3 0-8.6 14-52.1 30.8-95.5l9.8-25.5 95.1-.3 95.1-.2 5 9.7c14.2 27.7 29 70.6 34.5 99.8 3 16 3.4 14.2-2.6 15-2.9.3-10.1 1.3-16.2 2.1-6 .8-14.4 1.9-18.5 2.4s-12.4 1.6-18.5 2.5c-6 .8-13.6 1.7-16.7 2.1-4 .4-5.8 1.1-5.8 2 0 1.2 16.2 1.4 105 1.4 64.9 0 105-.4 105-.9 0-1.6-.9-1.8-16.1-5.1-7.9-1.7-17.3-3.7-20.9-4.5-3.6-.8-7.9-1.7-9.6-2-2.6-.5-3.8-2-9.3-11.8-8.2-14.8-31-60.5-39-78.2-3.4-7.7-11.4-26.2-17.6-41-6.2-14.9-17.2-41.2-24.5-58.5-7.3-17.3-23.7-56.5-36.5-87-36.6-87.3-56.1-133.8-60.3-143.5l-3.8-9-11.5-.3-11.4-.2-5.4 13.7c-2.9 7.6-9.6 24.6-14.8 37.8-5.2 13.2-10.8 27.6-12.5 32-1.7 4.4-3.4 8.4-3.8 8.8-.4.4-10.3-22.1-22-50s-31.9-76.2-45-107.3c-13-31.1-25-59.8-26.6-63.7l-2.9-7.3h-11.7c-6.4 0-11.9.3-12.1.7zm55.9 150.4C387.2 316 409 368.8 409 369.4c0 2.2-8.5 22.3-9.5 22.6-.5.1-10.7-23.1-22.6-51.6-11.9-28.6-33.6-80.6-48.3-115.7-14.6-35.1-26.6-64.6-26.6-65.5 0-1.5 7.3-21.3 8.7-23.5.3-.4.7-.6 1-.3.3.3 22.3 52.8 48.9 116.7zM311.4 213c24.2 48.6 56.3 122.2 69.9 160.7l3.6 10.2-2.7.5c-11.6 2.3-34.2 3.1-83.2 3.1-51.5 0-80.3-1.2-84.1-3.6-1-.6.8-6.1 8-24.6 31.7-80.7 51-127.2 68.4-163.6 4.6-9.9 5.2-10.7 6.5-9 .7 1 6.8 12.8 13.6 26.3zm238.1 253.5C594 573.2 630.9 662 631.7 663.8l1.3 3.2h-20.5l-25.8-61.8c-14.1-33.9-25.7-62.1-25.7-62.5 0-.4 1.2-.7 2.6-.7 3.6 0 2.5-2.3-1.5-3.1-1.7-.4-3.3-.8-3.5-1-.1-.2-15.9-38-35.1-83.9-19.1-45.9-41.7-100.3-50.3-120.8L457.7 296l4.8-12.6c2.6-6.9 5.1-12.1 5.5-11.7.4.4 37.1 88.1 81.5 194.8zm-80.7-114.8c15.9 31.9 25.3 52.5 41.9 91.3 15 35 31.2 76.5 30.1 77.5-1.8 1.8-54.9 4.5-89.4 4.5-31.9 0-79.4-2.6-81.2-4.5-.4-.4 15.6-41.8 32.3-83.5 19.6-48.6 48.8-115 50.6-115 .5 0 7.6 13.4 15.7 29.7z" /></symbol><symbol viewBox="0 0 528.899 528.899" id="pencil"><path d="M328.883 89.125l107.59 107.589-272.34 272.34L56.604 361.465l272.279-272.34zm189.23-25.948l-47.981-47.981c-18.543-18.543-48.653-18.543-67.259 0l-45.961 45.961 107.59 107.59 53.611-53.611c14.382-14.383 14.382-37.577 0-51.959zM.3 512.69c-1.958 8.812 5.998 16.708 14.811 14.565l119.891-29.069L27.473 390.597.3 512.69z" /></symbol><symbol viewBox="0 0 980 980" id="phone"><path d="M464 .7c-38.1 2.6-61.4 6.2-94 14.3-59 14.7-117.3 42-167.5 78.5-40.7 29.6-81.4 70.5-110.3 110.8C19.4 305.9-11.7 428.7 4.1 552.5c11.8 92.2 48.8 177.1 109.4 250.7 14.1 17.1 46.2 49.2 63.3 63.3 107.6 88.5 242.4 127.3 378.7 109C647.9 963 732 925.8 805 864.9c15.6-12.9 46.4-43.7 59.1-58.9 19-22.7 37.5-49.1 50.9-72.5 8.4-14.6 24.6-48 30.5-63 61.7-155.8 39.4-332.7-59-468-28.4-39-66.5-77.5-105-106C695.8 32.9 593-.7 487.5.2c-10.4.1-21 .3-23.5.5zM524.5 70c78.8 6.7 153.9 35.1 216.8 82.1 85.8 64.2 144 157.6 163.1 261.9 5.3 28.8 6.1 39.1 6.1 76s-.8 47.2-6.1 76c-14.9 81.5-53.8 156.9-111.9 216.9-58.8 60.8-135.4 103-216.9 119.6-33.2 6.8-45.9 7.9-85.1 8-37.5 0-47.4-.8-76.5-6.1-160.9-29.5-291.7-151.5-332-309.7-9.8-38.5-12.5-60.9-12.5-104.7 0-36 1-48.4 6.1-76C107.3 242.2 242.5 107 414 75.6c12.3-2.2 33.9-5.1 45-5.9 10.8-.8 54.5-.6 65.5.3z" /><path d="M336.5 200c-17.1 5.5-36.8 23.1-53.4 47.5-12.8 18.8-23 50.1-27.3 83.5-1.7 13.9-1.4 46.9.6 61.9 8.9 64.9 37.5 129.6 85.8 193.9 38.2 50.8 63.7 80.6 89 104 49.6 45.8 107.7 77.7 160.9 88.4 9.5 1.9 14.7 2.2 30.9 2.3 21.1 0 27.6-.8 42.2-5.6 22.3-7.2 42.2-21.5 53.4-38.4 8.2-12.2 8.9-20.1 3.4-34.9-7.6-20.1-41.8-56.5-76.5-81.2-18.2-12.9-26.3-16.3-39.1-16.4-10.5 0-16.8 2-25.9 8.1-13.4 9.1-30.1 14.8-46 15.6-8.4.5-11.4.2-18-1.6-9.5-2.6-24.4-10.2-34-17.4-9.7-7.1-30.6-28.1-40.4-40.6-23.9-30.3-47.6-73.1-57.6-104.1-3.6-11.3-4.6-29.3-2-38.9 2.3-8.8 6.5-17.1 13.5-26.6 3.2-4.4 9.4-13.2 13.6-19.5 4.3-6.3 12.3-17.6 17.8-25l10.1-13.5-.1-10.5c-.2-12.3-2.6-21.7-10.4-39.9-13.4-31.1-38.4-68.9-53.9-81.7-12.7-10.5-24.3-13.5-36.6-9.4z" /></symbol><symbol viewBox="0 0 95.333 95.332" id="quote"><path d="M30.512 43.939c-2.348-.676-4.696-1.019-6.98-1.019-3.527 0-6.47.806-8.752 1.793 2.2-8.054 7.485-21.951 18.013-23.516a2.501 2.501 0 002.04-1.799l2.301-8.23a2.5 2.5 0 00-2.068-3.15 17.477 17.477 0 00-2.354-.16c-12.637 0-25.152 13.19-30.433 32.076-3.1 11.08-4.009 27.738 3.627 38.223 4.273 5.867 10.507 9 18.529 9.313l.098.002c9.898 0 18.675-6.666 21.345-16.209a22.032 22.032 0 00-2.032-16.851c-2.875-5.105-7.61-8.826-13.334-10.473zM92.471 54.413c-2.875-5.106-7.61-8.827-13.334-10.474-2.348-.676-4.696-1.019-6.979-1.019a21.94 21.94 0 00-8.753 1.793c2.2-8.054 7.485-21.951 18.014-23.516a2.503 2.503 0 002.04-1.799l2.301-8.23a2.5 2.5 0 00-2.068-3.15 17.455 17.455 0 00-2.354-.16c-12.637 0-25.152 13.19-30.434 32.076-3.099 11.08-4.008 27.738 3.629 38.225 4.272 5.866 10.507 9 18.528 9.312l.099.002c9.897 0 18.675-6.666 21.345-16.209a22.045 22.045 0 00-2.034-16.851z" /></symbol><symbol viewBox="0 0 1000 1000" id="remove"><path d="M585.8 500l385.9-385.9c24.5-24.5 24.5-61.3 0-85.8s-61.3-24.5-85.8 0L500 414.3 114.1 28.4c-24.5-24.5-61.2-24.5-85.8 0-24.5 24.5-24.5 61.3 0 85.8L411.2 500 28.4 885.9c-24.5 24.5-24.5 61.3 0 85.8 9.2 12.3 27.6 18.4 42.9 18.4 15.3 0 30.6-6.1 42.9-18.4L500 585.8l385.9 385.9c12.3 12.3 27.6 18.4 42.9 18.4s30.6-6.1 42.9-18.4c24.5-24.5 24.5-61.3 0-85.8L585.8 500z" /></symbol><symbol viewBox="-90 0 512 512" id="scroll"><path d="M166.238 430.145l-89.77-94.899 29.06-27.488 60.632 64.097 60.274-64.058 29.132 27.41zM332 392V120C332 53.832 278.168 0 212 0h-92C53.832 0 0 53.832 0 120v272c0 66.168 53.832 120 120 120h92c66.168 0 120-53.832 120-120zM212 40c44.113 0 80 35.887 80 80v272c0 44.113-35.887 80-80 80h-92c-44.113 0-80-35.887-80-80V120c0-44.113 35.887-80 80-80zm-46 41c-11.047 0-20 8.953-20 20s8.953 20 20 20 20-8.953 20-20-8.953-20-20-20zm0 80c-11.047 0-20 8.953-20 20s8.953 20 20 20 20-8.953 20-20-8.953-20-20-20zm0 80c-11.047 0-20 8.953-20 20s8.953 20 20 20 20-8.953 20-20-8.953-20-20-20zm0 0" /></symbol><symbol viewBox="0 0 319 319" id="telegram"><style>#telegram .s0{fill:#000}</style><g id="telegram_Layer"><path id="telegram_Layer" fill-rule="evenodd" class="s0" d="M184 8.1c16.9 3.2 34.6 9.1 46 15.2 41.6 22.6 69.3 59.5 79 105.2 3.1 14.6 3.8 37.7 1.5 52-5.5 35.5-19.7 63.3-44.9 88-23.3 22.9-53.1 37.3-87 42-13.8 1.9-24.4 1.9-37.8 0-20.3-2.8-28.8-5.3-46.3-13.5-46.7-21.7-77.6-63.4-86.4-116.1-1.6-9.3-1.3-35.8.4-45.9 4.4-26.6 15.3-51.1 31.5-71.2C66.7 30.6 107.3 9.1 148 6.6c8.5-.5 29.9.4 36 1.5zm-43.5 9.6c-1.1.2-5.6 1.1-9.9 1.9-16.8 3.2-34.9 10.9-50.7 21.4-11.4 7.6-30.4 26.3-37.6 37-4.4 6.5-13 22.6-15.4 28.5-3.8 9.7-6.1 18.6-8.9 33.9-.5 3.3-1 11.5-1 18.4 0 29 8.5 56.2 25.3 81.2 4.4 6.5 23.4 26.8 29.2 31 21.7 16.1 40.6 24.3 65.5 28.5 22.1 3.8 52.9.6 72.9-7.4 24.3-9.8 43.3-23.5 59.1-42.6 16.2-19.8 25.4-39.7 31-68 1.6-7.8 1.6-37.3.1-45-4.9-23.9-12.7-42.9-24.6-60-7.6-10.8-25.4-28.1-37-35.7-9.6-6.4-26-14.8-28.8-14.8-.7 0-1.7-.4-2.3-.8-1.4-1.3-15-5-24.4-6.7-7.9-1.4-37.3-2-42.5-.8z" /><path id="telegram_Layer" fill-rule="evenodd" class="s0" d="M225.2 92.1c1.9-.1 4.8 2.4 4.8 4.2 0 1.9-30.1 121.9-31.2 124.3-1.4 3-7.1 5.7-10.6 4.9-2.2-.4-11.5-6.8-20.2-13.8-.9-.6-5-3.8-9.3-7.1-6.8-5.1-7.9-5.7-9.5-4.5-1.9 1.5-13.7 11.5-16.7 14.2-1.1 1-2.6 1.6-3.5 1.5-.8-.2-6.2-9.7-12.5-22.1l-11.1-21.9-17.9-6c-9.9-3.4-18.6-6.5-19.2-7.1-2.7-2.1-.2-8.7 3.4-8.7.7 0 2.1-.4 3.1-.9.9-.6 7.3-3.1 14.2-5.6 6.9-2.6 13.4-5 14.5-5.5 1.9-.8 10.8-4.2 46.5-17.7 8-3 15.4-5.8 16.5-6.3 1.1-.5 7.6-2.9 14.5-5.5s13.4-5 14.5-5.5c1.1-.4 4.7-1.8 8-3s6.9-2.6 8-3.1c1.1-.5 4.3-1.7 7-2.8 2.8-1 5.8-1.9 6.7-2zM184 128.2c-3.6 2.3-8.1 5-10.1 6.2-21.4 12.4-58.9 35.4-59.3 36.4-.6 1.4 13.1 30.2 14.5 30.2 1.1 0 1.1-4.5-.1-12-.7-4.5-.5-5.9.8-7.7 1-1.2 9.8-9.3 19.7-17.9 9.9-8.6 20.9-18.3 24.5-21.4 3.6-3.1 8.8-7.7 11.6-10.1 2.8-2.4 5.6-5.2 6.3-6.2 1.8-2.8-.6-2-7.9 2.5z" /></g></symbol><symbol viewBox="0 0 342.357 342.357" id="tick"><path d="M290.04 33.286L118.861 204.427l-66.541-66.52L0 190.226l118.862 118.845L342.357 85.606z" /></symbol><symbol viewBox="0 0 459 459" id="trash"><path d="M76.5 408c0 28.05 22.95 51 51 51h204c28.05 0 51-22.95 51-51V102h-306v306zM408 25.5h-89.25L293.25 0h-127.5l-25.5 25.5H51v51h357v-51z" /></symbol><symbol viewBox="0 0 482.9 482.9" id="user"><path d="M239.7 260.2h3.2c29.3-.5 53-10.8 70.5-30.5 38.5-43.4 32.1-117.8 31.4-124.9-2.5-53.3-27.7-78.8-48.5-90.7C280.8 5.2 262.7.4 242.5 0H240.8c-11.1 0-32.9 1.8-53.8 13.7-21 11.9-46.6 37.4-49.1 91.1-.7 7.1-7.1 81.5 31.4 124.9 17.4 19.7 41.1 30 70.4 30.5zm-75.1-152.9c0-.3.1-.6.1-.8 3.3-71.7 54.2-79.4 76-79.4H241.9c27 .6 72.9 11.6 76 79.4 0 .3 0 .6.1.8.1.7 7.1 68.7-24.7 104.5-12.6 14.2-29.4 21.2-51.5 21.4h-1c-22-.2-38.9-7.2-51.4-21.4-31.7-35.6-24.9-103.9-24.8-104.5z" /><path d="M446.8 383.6v-.3c0-.8-.1-1.6-.1-2.5-.6-19.8-1.9-66.1-45.3-80.9-.3-.1-.7-.2-1-.3-45.1-11.5-82.6-37.5-83-37.8-6.1-4.3-14.5-2.8-18.8 3.3-4.3 6.1-2.8 14.5 3.3 18.8 1.7 1.2 41.5 28.9 91.3 41.7 23.3 8.3 25.9 33.2 26.6 56 0 .9 0 1.7.1 2.5.1 9-.5 22.9-2.1 30.9-16.2 9.2-79.7 41-176.3 41-96.2 0-160.1-31.9-176.4-41.1-1.6-8-2.3-21.9-2.1-30.9 0-.8.1-1.6.1-2.5.7-22.8 3.3-47.7 26.6-56 49.8-12.8 89.6-40.6 91.3-41.7 6.1-4.3 7.6-12.7 3.3-18.8-4.3-6.1-12.7-7.6-18.8-3.3-.4.3-37.7 26.3-83 37.8-.4.1-.7.2-1 .3-43.4 14.9-44.7 61.2-45.3 80.9 0 .9 0 1.7-.1 2.5v.3c-.1 5.2-.2 31.9 5.1 45.3 1 2.6 2.8 4.8 5.2 6.3 3 2 74.9 47.8 195.2 47.8s192.2-45.9 195.2-47.8c2.3-1.5 4.2-3.7 5.2-6.3 5-13.3 4.9-40 4.8-45.2z" /></symbol><symbol viewBox="0 0 548.358 548.358" id="vk"><path d="M545.451 400.298c-.664-1.431-1.283-2.618-1.858-3.569-9.514-17.135-27.695-38.167-54.532-63.102l-.567-.571-.284-.28-.287-.287h-.288c-12.18-11.611-19.893-19.418-23.123-23.415-5.91-7.614-7.234-15.321-4.004-23.13 2.282-5.9 10.854-18.36 25.696-37.397 7.807-10.089 13.99-18.175 18.556-24.267 32.931-43.78 47.208-71.756 42.828-83.939l-1.701-2.847c-1.143-1.714-4.093-3.282-8.846-4.712-4.764-1.427-10.853-1.663-18.278-.712l-82.224.568c-1.332-.472-3.234-.428-5.712.144l-3.713.859-1.431.715-1.136.859c-.952.568-1.999 1.567-3.142 2.995-1.137 1.423-2.088 3.093-2.848 4.996-8.952 23.031-19.13 44.444-30.553 64.238-7.043 11.803-13.511 22.032-19.418 30.693-5.899 8.658-10.848 15.037-14.842 19.126-4 4.093-7.61 7.372-10.852 9.849-3.237 2.478-5.708 3.525-7.419 3.142-1.715-.383-3.33-.763-4.859-1.143-2.663-1.714-4.805-4.045-6.42-6.995-1.622-2.95-2.714-6.663-3.285-11.136-.568-4.476-.904-8.326-1-11.563-.089-3.233-.048-7.806.145-13.706.198-5.903.287-9.897.287-11.991 0-7.234.141-15.085.424-23.555.288-8.47.521-15.181.716-20.125.194-4.949.284-10.185.284-15.705s-.336-9.849-1-12.991a44.442 44.442 0 00-2.99-9.137c-1.335-2.95-3.289-5.232-5.853-6.852-2.569-1.618-5.763-2.902-9.564-3.856-10.089-2.283-22.936-3.518-38.547-3.71-35.401-.38-58.148 1.906-68.236 6.855-3.997 2.091-7.614 4.948-10.848 8.562-3.427 4.189-3.905 6.475-1.431 6.851 11.422 1.711 19.508 5.804 24.267 12.275l1.715 3.429c1.334 2.474 2.666 6.854 3.999 13.134 1.331 6.28 2.19 13.227 2.568 20.837.95 13.897.95 25.793 0 35.689-.953 9.9-1.853 17.607-2.712 23.127-.859 5.52-2.143 9.993-3.855 13.418-1.715 3.426-2.856 5.52-3.428 6.28-.571.76-1.047 1.239-1.425 1.427a21.387 21.387 0 01-7.71 1.431c-2.667 0-5.901-1.334-9.707-4-3.805-2.666-7.754-6.328-11.847-10.992-4.093-4.665-8.709-11.184-13.85-19.558-5.137-8.374-10.467-18.271-15.987-29.691l-4.567-8.282c-2.855-5.328-6.755-13.086-11.704-23.267-4.952-10.185-9.329-20.037-13.134-29.554-1.521-3.997-3.806-7.04-6.851-9.134l-1.429-.859c-.95-.76-2.475-1.567-4.567-2.427a30.301 30.301 0 00-6.567-1.854l-78.229.568c-7.994 0-13.418 1.811-16.274 5.428l-1.143 1.711c-.571.953-.859 2.475-.859 4.57 0 2.094.571 4.664 1.714 7.707 11.42 26.84 23.839 52.725 37.257 77.659 13.418 24.934 25.078 45.019 34.973 60.237 9.897 15.229 19.985 29.602 30.264 43.112 10.279 13.515 17.083 22.176 20.412 25.981 3.333 3.812 5.951 6.662 7.854 8.565l7.139 6.851c4.568 4.569 11.276 10.041 20.127 16.416 8.853 6.379 18.654 12.659 29.408 18.85 10.756 6.181 23.269 11.225 37.546 15.126 14.275 3.905 28.169 5.472 41.684 4.716h32.834c6.659-.575 11.704-2.669 15.133-6.283l1.136-1.431c.764-1.136 1.479-2.901 2.139-5.276.668-2.379 1-5 1-7.851-.195-8.183.428-15.558 1.852-22.124 1.423-6.564 3.045-11.513 4.859-14.846 1.813-3.33 3.859-6.14 6.136-8.418 2.282-2.283 3.908-3.666 4.862-4.142.948-.479 1.705-.804 2.276-.999 4.568-1.522 9.944-.048 16.136 4.429 6.187 4.473 11.99 9.996 17.418 16.56 5.425 6.57 11.943 13.941 19.555 22.124 7.617 8.186 14.277 14.271 19.985 18.274l5.708 3.426c3.812 2.286 8.761 4.38 14.853 6.283 6.081 1.902 11.409 2.378 15.984 1.427l73.087-1.14c7.229 0 12.854-1.197 16.844-3.572 3.998-2.379 6.373-5 7.139-7.851.764-2.854.805-6.092.145-9.712-.677-3.611-1.344-6.136-2.008-7.563z" /></symbol></defs></svg>